<svg xmlns="http://www.w3.org/2000/svg" width="1200" height="440" viewBox="0 0 1200 440" role="img" aria-labelledby="title desc">
<title id="title">Pablo del Viso — Desarrollo fullstack</title>
<desc id="desc">Terminal personal con tecnologías y un mosaico en colores de Rubik.</desc>
<style>text{font-family:monospace}.cursor{animation:blink 1.2s step-end infinite}.piece{animation:breathe 6s ease-in-out infinite}@keyframes blink{50%{opacity:0}}@keyframes breathe{0%,100%{opacity:1}50%{opacity:.65}}@media(prefers-reduced-motion:reduce){.cursor,.piece{animation:none}}</style>
<rect x="1" y="1" width="1198" height="438" rx="22" fill="#F5F7FB" stroke="#D7DEE8"/>
<path d="M23 1 H1177 Q1199 1 1199 23 V58 H1 V23 Q1 1 23 1" fill="#FFFFFF"/>
<path d="M1 58 H1199" stroke="#D7DEE8"/>
<circle cx="30" cy="30" r="6" fill="#EA4335"/><circle cx="52" cy="30" r="6" fill="#FBBC05"/><circle cx="74" cy="30" r="6" fill="#34A853"/>
<text x="600" y="36" text-anchor="middle" fill="#526078" font-size="13">pablo@github: ~/ideas</text>
<text x="44" y="105" fill="#126C43" font-size="18">$ ./profile.sh --creative</text>
<text x="42" y="166" fill="#152238" font-size="44" font-weight="700">Pablo del Viso</text>
<text x="44" y="202" fill="#526078" font-size="18">FULLSTACK / PRODUCTO / IA</text><text x="44" y="256" fill="#126C43" font-size="16">frontend</text><text x="158" y="256" fill="#152238" font-size="16">Angular · TypeScript · React Native</text><text x="44" y="292" fill="#126C43" font-size="16">backend</text><text x="158" y="292" fill="#152238" font-size="16">NestJS · PostgreSQL · Prisma</text><text x="44" y="328" fill="#126C43" font-size="16">mindset</text><text x="158" y="328" fill="#152238" font-size="16">Construir. Probar. Mejorar.</text><text x="44" y="396" fill="#526078" font-size="15">$ siguiente_idea</text><rect class="cursor" x="201" y="382" width="10" height="18" fill="#126C43"/><rect class="piece" x="902" y="125" width="63" height="63" rx="12" fill="#4285F4" style="animation-delay:0s"/><rect class="piece" x="975" y="125" width="63" height="63" rx="12" fill="#34A853" style="animation-delay:0.3s"/><rect class="piece" x="1048" y="125" width="63" height="63" rx="12" fill="#FBBC05" style="animation-delay:0.6s"/><rect class="piece" x="902" y="198" width="63" height="63" rx="12" fill="#EA4335" style="animation-delay:0.8999999999999999s"/><rect class="piece" x="975" y="198" width="63" height="63" rx="12" fill="#F5F7FA" style="animation-delay:1.2s"/><rect class="piece" x="1048" y="198" width="63" height="63" rx="12" fill="#4285F4" style="animation-delay:1.5s"/><rect class="piece" x="902" y="271" width="63" height="63" rx="12" fill="#FA8C32" style="animation-delay:1.7999999999999998s"/><rect class="piece" x="975" y="271" width="63" height="63" rx="12" fill="#FBBC05" style="animation-delay:2.1s"/><rect class="piece" x="1048" y="271" width="63" height="63" rx="12" fill="#34A853" style="animation-delay:2.4s"/><text x="1006" y="378" text-anchor="middle" fill="#526078" font-size="12">ENCAJANDO IDEAS</text></svg>